<svg width="300" height="300" viewBox="0 0 300 300" fill="none" xmlns="http://www.w3.org/2000/svg">
<g clip-path="url(#clip0_1906_843)">
<path d="M150 94C165.117 94 179.615 100.163 190.305 111.134C200.879 121.987 206.87 136.665 206.997 152H207V156H183.75V152.241C183.684 143.147 180.138 134.44 173.867 128.005C167.537 121.508 158.952 117.858 150 117.858C141.048 117.858 132.463 121.508 126.133 128.005C119.862 134.44 116.316 143.147 116.25 152.241V156H93V152H93.0029C93.1305 136.665 99.1206 121.987 109.695 111.134C120.385 100.163 134.883 94 150 94Z" fill="#77BAC6"/>
<path d="M150 0C232.843 0 300 67.1573 300 150V300H276V150C276 80.4121 219.588 24 150 24C80.4121 24 24 80.4121 24 150V300H0V150C0 67.1573 67.1573 0 150 0Z" fill="#77BAC6"/>
<path d="M150 46C206.866 46 253 91.8675 253 148.491V300H229.16V148.491C229.16 105.028 193.738 69.7588 150 69.7588C106.262 69.7588 70.8399 105.028 70.8398 148.491V300H47V148.491C47 91.8675 93.1341 46 150 46Z" fill="#FFD988"/>
<path d="M116.25 189.759C116.316 198.853 119.862 207.56 126.133 213.995C132.463 220.492 141.048 224.142 150 224.142C158.952 224.142 167.537 220.492 173.867 213.995C180.138 207.56 183.684 198.853 183.75 189.759V180H206.998L207 190H206.997C206.87 205.335 200.879 220.013 190.305 230.866C188.309 232.915 186.179 234.795 183.938 236.5C186.179 238.205 188.309 240.085 190.305 242.134C200.879 252.987 206.87 267.665 206.997 283H207V300H183.75V283.241C183.684 274.147 180.138 265.44 173.867 259.005C167.537 252.508 158.952 248.858 150 248.858C141.048 248.858 132.463 252.508 126.133 259.005C119.862 265.44 116.316 274.147 116.25 283.241V300H93V283H93.0029C93.1305 267.665 99.1206 252.987 109.695 242.134C111.691 240.085 113.82 238.204 116.061 236.5C113.82 234.796 111.691 232.915 109.695 230.866C99.1206 220.013 93.1305 205.335 93.0029 190H93V180H116.25V189.759Z" fill="#77BAC6"/>
</g>
<defs>
<clipPath id="clip0_1906_843">
<rect width="300" height="300" fill="white"/>
</clipPath>
</defs>
</svg>
