<svg width="32" height="32" viewBox="0 0 32 32" fill="none" xmlns="http://www.w3.org/2000/svg">
<path d="M15.5838 11.885C15.5838 11.9413 15.5386 11.9873 15.4823 11.9873V11.9873C11.4427 11.9873 8.16797 8.74466 8.16797 4.7447L8.16797 2.48886C8.16797 2.06807 8.50908 1.72695 8.92987 1.72695V1.72695C9.35066 1.72695 9.69178 2.06807 9.69178 2.48886L9.69178 4.74469C9.69178 7.91133 12.2843 10.4784 15.4823 10.4784V10.4784C15.5381 10.4784 15.5838 10.5233 15.5838 10.5791L15.5838 11.885Z" fill="black"/>
<path d="M15.5841 11.885C15.5841 11.9413 15.6294 11.9873 15.6857 11.9873V11.9873C19.7253 11.9873 23 8.74466 23 4.7447L23 2.48886C23 2.06807 22.6589 1.72696 22.2381 1.72696V1.72696C21.8173 1.72696 21.4762 2.06807 21.4762 2.48886L21.4762 4.7447C21.4762 7.91134 18.8837 10.4784 15.6857 10.4784V10.4784C15.6299 10.4784 15.5841 10.5233 15.5841 10.5791L15.5841 11.885Z" fill="black"/>
<path d="M15.5838 31.9993C15.55 31.9998 15.5162 32 15.4823 32C11.4427 32 8.16797 28.7574 8.16797 24.7575L8.16797 21.7397L9.69178 21.7397L9.69178 24.7575C9.69178 27.9241 12.2843 30.4912 15.4823 30.4912C15.5162 30.4912 15.55 30.4909 15.5838 30.4903L15.5838 31.9993Z" fill="black"/>
<path d="M15.5841 31.9993C15.6179 31.9998 15.6518 32 15.6857 32C19.7253 32 23 28.7574 23 24.7575L23 21.7397L21.4762 21.7397L21.4762 24.7575C21.4762 27.9241 18.8837 30.4912 15.6857 30.4912C15.6518 30.4912 15.6179 30.4909 15.5841 30.4903L15.5841 31.9993Z" fill="black"/>
<path d="M15.5838 10.4642C15.55 10.4637 15.5162 10.4635 15.4823 10.4635C11.4427 10.4635 8.16797 13.7061 8.16797 17.7061L8.16797 20.7238L9.69178 20.7238L9.69178 17.7061C9.69178 14.5394 12.2843 11.9724 15.4823 11.9724C15.5162 11.9724 15.5501 11.9727 15.5838 11.9732L15.5838 10.4642Z" fill="black"/>
<path d="M15.5841 10.4642C15.6179 10.4637 15.6518 10.4635 15.6857 10.4635C19.7253 10.4635 23 13.7061 23 17.7061L23 20.7238L21.4762 20.7238L21.4762 17.7061C21.4762 14.5394 18.8837 11.9724 15.6857 11.9724C15.6518 11.9724 15.6179 11.9727 15.5841 11.9732L15.5841 10.4642Z" fill="black"/>
<path d="M14.7724 1.93015C14.986 2.15046 15.2936 2.28869 15.6355 2.28869C15.9774 2.28869 16.285 2.15046 16.4987 1.93015C16.4989 1.93809 16.499 1.94605 16.499 1.95405L16.499 8.83808C16.499 9.28692 16.1124 9.65078 15.6355 9.65078C15.1586 9.65078 14.772 9.28692 14.772 8.83808L14.772 1.95405C14.772 1.94605 14.7722 1.93808 14.7724 1.93015Z" fill="black"/>
<path d="M20.4609 21.7397H10.7086V24.5841C10.7086 27.2772 12.8917 29.4603 15.5847 29.4603V29.4603C18.2778 29.4603 20.4609 27.2772 20.4609 24.5841V21.7397Z" fill="#77BAC6"/>
<path d="M20.4609 20.7238H10.7086V17.8793C10.7086 15.1863 12.8917 13.0031 15.5847 13.0031V13.0031C18.2778 13.0031 20.4609 15.1863 20.4609 17.8793V20.7238Z" fill="#E59D70"/>
<circle cx="0.863492" cy="0.863492" r="0.863492" transform="matrix(-1 0 0 1 16.5 0)" fill="black"/>
</svg>
